<svg width="137" height="289" viewBox="0 0 137 289" fill="none" xmlns="http://www.w3.org/2000/svg">
<path fill-rule="evenodd" clip-rule="evenodd" d="M77.6818 250.659C77.2992 250.927 77.0953 251.062 77.0953 251.062L77.0973 251.064C62.8722 244.399 67.8077 191.408 68.145 187.787C68.1564 187.664 68.1625 187.598 68.1625 187.592L66.0464 47.5881C49.6293 -13.371 45.4198 236.324 52.3443 244.359C66.3052 247.151 65.3734 286.048 65.3734 286.048L73.0032 288.656C73.0032 288.656 71.5148 268.183 73.7495 258.504C74.3746 255.491 75.8851 252.86 77.6818 250.659ZM86.976 243.06C87.2086 242.933 87.3372 242.869 87.3372 242.869C87.334 242.825 87.3308 242.781 87.3275 242.737C87.2097 242.846 87.0925 242.953 86.976 243.06Z" fill="white"/>
<path fill-rule="evenodd" clip-rule="evenodd" d="M82.7261 251.062C82.7261 251.062 149.545 207.136 133.909 115.749C118.834 49.3068 83.2848 27.5305 79.3761 19.1544C75.0963 13.1986 71 2.77734 71 2.77734L73.7934 187.592C73.7934 187.78 68.0231 244.174 82.7282 251.064" fill="white"/>
<path fill-rule="evenodd" clip-rule="evenodd" d="M59.1613 251.449C59.1613 251.449 -3.56374 208.64 0.159423 133.263C3.69502 57.8845 47.9918 20.8465 56.5535 14.1464C62.1382 8.19056 62.3237 5.95585 62.6969 0C66.6056 8.37611 65.8614 125.26 66.418 139.032C68.092 192.076 63.4411 241.401 59.1613 251.449Z" fill="white"/>
</svg>
